<svg width="60" height="60" viewBox="0 0 60 60" fill="none" xmlns="http://www.w3.org/2000/svg">
<rect width="60" height="60" rx="30" fill="#100531"/>
<path opacity="0.4" d="M36.36 39.3067H23.64C23.08 39.3067 22.5733 38.9467 22.3867 38.4267L16.84 22.8933C16.4 21.6533 17.8133 20.6 18.8667 21.36L24.2 25.1733C24.9067 25.68 25.92 25.3733 26.2267 24.56L28.7467 17.84C29.1733 16.68 30.8133 16.68 31.24 17.84L33.76 24.56C34.0667 25.3867 35.0667 25.68 35.7867 25.1733L41.12 21.36C42.1867 20.6 43.5867 21.6667 43.1467 22.8933L37.6 38.4267C37.4267 38.9467 36.92 39.3067 36.36 39.3067Z" fill="white"/>
<path d="M36.6666 43.3333H23.3333C22.7866 43.3333 22.3333 42.88 22.3333 42.3333C22.3333 41.7867 22.7866 41.3333 23.3333 41.3333H36.6666C37.2133 41.3333 37.6666 41.7867 37.6666 42.3333C37.6666 42.88 37.2133 43.3333 36.6666 43.3333Z" fill="white"/>
<path d="M33.3334 33.6667H26.6667C26.12 33.6667 25.6667 33.2133 25.6667 32.6667C25.6667 32.12 26.12 31.6667 26.6667 31.6667H33.3334C33.88 31.6667 34.3334 32.12 34.3334 32.6667C34.3334 33.2133 33.88 33.6667 33.3334 33.6667Z" fill="white"/>
</svg>
