<svg width="60" height="60" viewBox="0 0 60 60" fill="none" xmlns="http://www.w3.org/2000/svg">
<rect width="60" height="60" rx="30" fill="#100531"/>
<path opacity="0.4" d="M36.6667 41.3333H23.3333C19.3333 41.3333 16.6667 39.3333 16.6667 34.6667V25.3333C16.6667 20.6667 19.3333 18.6667 23.3333 18.6667H36.6667C40.6667 18.6667 43.3333 20.6667 43.3333 25.3333V34.6667C43.3333 39.3333 40.6667 41.3333 36.6667 41.3333Z" fill="white"/>
<path d="M30 34C32.2091 34 34 32.2091 34 30C34 27.7909 32.2091 26 30 26C27.7909 26 26 27.7909 26 30C26 32.2091 27.7909 34 30 34Z" fill="white"/>
<path d="M21.3333 34.3333C20.7867 34.3333 20.3333 33.88 20.3333 33.3333V26.6667C20.3333 26.12 20.7867 25.6667 21.3333 25.6667C21.88 25.6667 22.3333 26.12 22.3333 26.6667V33.3333C22.3333 33.88 21.88 34.3333 21.3333 34.3333Z" fill="white"/>
<path d="M38.6667 34.3333C38.12 34.3333 37.6667 33.88 37.6667 33.3333V26.6667C37.6667 26.12 38.12 25.6667 38.6667 25.6667C39.2133 25.6667 39.6667 26.12 39.6667 26.6667V33.3333C39.6667 33.88 39.2133 34.3333 38.6667 34.3333Z" fill="white"/>
</svg>
