<svg width="60" height="60" viewBox="0 0 60 60" fill="none" xmlns="http://www.w3.org/2000/svg">
<rect width="60" height="60" rx="30" fill="#100531"/>
<path opacity="0.4" d="M21.6533 35.3333C21.8 34.68 21.5333 33.7467 21.0667 33.28L17.8267 30.04C16.8133 29.0267 16.4133 27.9467 16.7067 27.0133C17.0133 26.08 17.96 25.44 19.3733 25.2L23.5333 24.5067C24.1333 24.4 24.8667 23.8667 25.1467 23.32L27.44 18.72C28.1067 17.4 29.0133 16.6667 30 16.6667C30.9867 16.6667 31.8933 17.4 32.56 18.72L34.8533 23.32C35.0267 23.6667 35.3867 24 35.7733 24.2267L21.4133 38.5867C21.2267 38.7733 20.9067 38.6 20.96 38.3333L21.6533 35.3333Z" fill="white"/>
<path d="M38.9333 33.28C38.4533 33.76 38.1867 34.68 38.3467 35.3333L39.2667 39.3467C39.6533 41.0133 39.4133 42.2667 38.5867 42.8667C38.2533 43.1067 37.8533 43.2267 37.3867 43.2267C36.7067 43.2267 35.9067 42.9733 35.0267 42.4533L31.12 40.1333C30.5067 39.7733 29.4933 39.7733 28.88 40.1333L24.9733 42.4533C23.4933 43.32 22.2267 43.4667 21.4133 42.8667C21.1067 42.64 20.88 42.3333 20.7333 41.9333L36.9467 25.72C37.56 25.1067 38.4267 24.8267 39.2667 24.9733L40.6133 25.2C42.0267 25.44 42.9733 26.08 43.28 27.0133C43.5733 27.9467 43.1733 29.0267 42.16 30.04L38.9333 33.28Z" fill="white"/>
</svg>
