<svg width="60" height="60" viewBox="0 0 60 60" fill="none" xmlns="http://www.w3.org/2000/svg">
<rect width="60" height="60" rx="30" fill="#100531"/>
<path d="M42.12 23.3067C40.9867 22.0533 39.0933 21.4267 36.3467 21.4267H36.0267V21.3733C36.0267 19.1333 36.0267 16.36 31.0133 16.36H28.9867C23.9733 16.36 23.9733 19.1467 23.9733 21.3733V21.44H23.6533C20.8933 21.44 19.0133 22.0667 17.88 23.32C16.56 24.7867 16.6 26.76 16.7333 28.1067L16.7467 28.2L16.88 29.6C16.8933 29.6133 16.92 29.64 16.9467 29.6533C17.3867 29.9467 17.84 30.24 18.32 30.5067C18.5067 30.6267 18.7067 30.7333 18.9067 30.84C21.1867 32.0933 23.6933 32.9333 26.24 33.3467C26.36 34.6 26.9067 36.0667 29.8267 36.0667C32.7467 36.0667 33.32 34.6133 33.4133 33.32C36.1333 32.88 38.76 31.9333 41.1333 30.5467C41.2133 30.5067 41.2667 30.4667 41.3333 30.4267C41.9467 30.08 42.52 29.7067 43.08 29.2933C43.1067 29.28 43.1333 29.2533 43.1467 29.2267L43.2 28.7467L43.2667 28.12C43.28 28.04 43.28 27.9733 43.2933 27.88C43.4 26.5333 43.3733 24.6933 42.12 23.3067ZM31.4533 32.44C31.4533 33.8533 31.4533 34.0667 29.8133 34.0667C28.1733 34.0667 28.1733 33.8133 28.1733 32.4533V30.7733H31.4533V32.44ZM25.88 21.4267V21.3733C25.88 19.1067 25.88 18.2667 28.9867 18.2667H31.0133C34.12 18.2667 34.12 19.12 34.12 21.3733V21.44H25.88V21.4267Z" fill="white"/>
<path opacity="0.4" d="M41.3333 30.4C41.2667 30.44 41.2 30.48 41.1333 30.52C38.76 31.9067 36.1333 32.84 33.4133 33.2933C33.3067 34.5733 32.7467 36.04 29.8267 36.04C26.9067 36.04 26.3467 34.5867 26.24 33.32C23.6933 32.92 21.1867 32.08 18.9067 30.8133C18.7067 30.7067 18.5067 30.6 18.32 30.48C17.84 30.2133 17.3867 29.92 16.9467 29.6267C16.92 29.6133 16.8933 29.5867 16.88 29.5733L17.6933 38.2533C17.9733 40.9067 19.0667 43.64 24.9333 43.64H35.0933C40.96 43.64 42.0533 40.9067 42.3333 38.24L43.1733 29.2C43.16 29.2267 43.1333 29.2533 43.1067 29.2667C42.5333 29.68 41.9467 30.0667 41.3333 30.4Z" fill="white"/>
</svg>
